HIERARCHY
ROOT hip
{
	OFFSET 0.000000 0.000000 0.000000
	CHANNELS 6 Xposition Yposition Zposition Xrotation Zrotation Yrotation 
	JOINT abdomen
	{
		OFFSET 0.000000 3.422050 0.000000
		CHANNELS 3 Xrotation Zrotation Yrotation 
		JOINT chest
		{
			OFFSET 0.000000 8.486693 -0.684411
			CHANNELS 3 Xrotation Zrotation Yrotation 
			JOINT neck
			{
				OFFSET 0.000000 10.266162 -0.273764
				CHANNELS 3 Xrotation Zrotation Yrotation 
				JOINT head
				{
					OFFSET 0.000000 3.148285 0.000000
					CHANNELS 3 Xrotation Zrotation Yrotation 
					End Site
					{
						OFFSET 0.000000 3.148289 0.000000
					}
				}
			}
			JOINT lCollar
			{
				OFFSET 3.422053 6.707223 -0.821293
				CHANNELS 3 Yrotation Zrotation Xrotation 
				JOINT lShldr
				{
					OFFSET 3.285171 0.000000 0.000000
					CHANNELS 3 Zrotation Yrotation Xrotation 
					JOINT lForeArm
					{
						OFFSET 10.129278 0.000000 0.000000
						CHANNELS 3 Yrotation Zrotation Xrotation 
						JOINT lHand
						{
							OFFSET 8.486692 0.000000 0.000000
							CHANNELS 3 Zrotation Yrotation Xrotation 
							End Site
							{
								OFFSET 4.106464 0.000000 0.000000
							}
						}
					}
				}
			}
			JOINT rCollar
			{
				OFFSET -3.558935 6.707223 -0.821293
				CHANNELS 3 Yrotation Zrotation Xrotation 
				JOINT rShldr
				{
					OFFSET -3.148289 0.000000 0.000000
					CHANNELS 3 Zrotation Yrotation Xrotation 
					JOINT rForeArm
					{
						OFFSET -10.266159 0.000000 0.000000
						CHANNELS 3 Yrotation Zrotation Xrotation 
						JOINT rHand
						{
							OFFSET -8.349810 0.000000 0.000000
							CHANNELS 3 Zrotation Yrotation Xrotation 
							End Site
							{
								OFFSET -4.106464 0.000000 0.000000
							}
						}
					}
				}
			}
		}
	}
	JOINT lThigh
	{
		OFFSET 5.338403 -1.642589 1.368821
		CHANNELS 3 Xrotation Zrotation Yrotation 
		JOINT lShin
		{
			OFFSET -2.053232 -20.121670 0.000000
			CHANNELS 3 Xrotation Zrotation Yrotation 
			JOINT lFoot
			{
				OFFSET 0.000000 -19.300380 -1.231939
				CHANNELS 3 Xrotation Yrotation Zrotation 
				End Site
				{
					OFFSET 0.000000 -2.463878 4.653993
				}
			}
		}
	}
	JOINT rThigh
	{
		OFFSET -5.338403 -1.642589 1.368821
		CHANNELS 3 Xrotation Zrotation Yrotation 
		JOINT rShin
		{
			OFFSET 2.053232 -20.121670 0.000000
			CHANNELS 3 Xrotation Zrotation Yrotation 
			JOINT rFoot
			{
				OFFSET 0.000000 -19.300380 -1.231939
				CHANNELS 3 Xrotation Yrotation Zrotation 
				End Site
				{
					OFFSET 0.000000 -2.463878 4.653993
				}
			}
		}
	}
}
MOTION
Frames: 6
Frame Time: 0.049989
0.000000 43.528500 0.000000 0.000000 0.000000 0.000000 0.000000 0.000000 0.000000 0.000000 0.000000 0.000000 0.000000 0.000000 0.000000 0.000000 0.000000 0.000000 0.000000 0.000000 0.000000 0.000000 0.000000 0.000000 0.000000 0.000000 0.000000 0.000000 0.000000 0.000000 0.000000 0.000000 0.000000 0.000000 0.000000 0.000000 0.000000 0.000000 0.000000 0.000000 0.000000 0.000000 0.000000 0.000000 0.000000 0.000000 0.000000 0.000000 0.000000 0.000000 0.000000 0.000000 0.000000 0.000000 0.000000 0.000000 0.000000 0.000000 0.000000 0.000000 
-0.309380 41.404850 1.054315 0.000000 0.000000 0.000000 2.716318 -0.523723 -0.115610 17.800772 -0.609568 -0.684835 -0.820081 0.000000 0.000000 -0.613743 0.000000 0.000000 -0.001347 -8.002656 -0.194655 -57.741531 -4.001737 -0.451969 -26.001497 0.000000 0.000000 -7.000325 0.000000 0.000000 -0.002182 7.999156 -0.194408 57.737442 3.998658 -0.453797 25.997908 0.000000 0.000000 6.996825 0.000000 0.000000 -20.230879 10.933756 9.937612 41.067867 1.463302 -0.581623 -17.597921 6.624269 -15.686709 -20.325382 -9.915351 -10.176389 41.345009 -1.656596 0.531856 -18.021509 -6.811956 14.851131 
-0.309380 41.404850 1.117161 -2.436715 0.000000 0.000000 3.764513 -0.472309 -0.119601 19.181025 -0.609388 -0.685004 -1.626354 0.000000 0.000000 -1.222343 0.000000 0.000000 -0.001347 -8.002656 -0.194655 -57.741531 -4.001737 -0.451969 -26.001499 0.000000 0.000000 -7.000325 0.000000 0.000000 -0.002182 7.999157 -0.194408 57.737442 3.998658 -0.453797 25.997910 0.000000 0.000000 6.996825 0.000000 0.000000 -17.298510 11.011456 10.124064 40.415028 1.373318 -0.586793 -17.597921 6.624269 -15.686711 -17.397007 -9.991915 -10.341231 40.696831 -1.553101 0.541962 -18.021511 -6.811956 14.851131 
-0.309380 41.404850 1.180008 -4.885815 0.000000 0.000000 4.813669 -0.420783 -0.122654 20.563496 -0.609203 -0.685169 -2.434306 0.000000 0.000000 -1.831657 0.000000 0.000000 -0.001347 -8.002657 -0.194655 -57.741531 -4.001738 -0.451969 -26.001499 0.000000 0.000000 -7.000325 0.000000 0.000000 -0.002182 7.999157 -0.194408 57.737442 3.998659 -0.453796 25.997910 0.000000 0.000000 6.996826 0.000000 0.000000 -14.343790 11.080149 10.315769 39.761990 1.283248 -0.590938 -17.597921 6.624270 -15.686709 -14.446395 -10.060548 -10.511111 40.048473 -1.449462 0.550898 -18.021509 -6.811956 14.851131 
-0.309380 41.404850 1.242854 -7.345141 0.000000 0.000000 5.863610 -0.369170 -0.124764 21.947786 -0.609015 -0.685330 -3.243859 0.000000 0.000000 -2.441651 0.000000 0.000000 -0.001347 -8.002655 -0.194655 -57.741531 -4.001737 -0.451969 -26.001497 0.000000 0.000000 -7.000325 0.000000 0.000000 -0.002182 7.999156 -0.194408 57.737434 3.998658 -0.453797 25.997908 0.000000 0.000000 6.996825 0.000000 0.000000 -11.370481 11.139374 10.512048 39.108776 1.193110 -0.594057 -17.597921 6.624269 -15.686709 -11.477283 -10.120813 -10.685440 39.399967 -1.345697 0.558662 -18.021509 -6.811956 14.851131 
-0.309380 41.404850 1.305701 -9.812483 0.000000 0.000000 6.914164 -0.317497 -0.125928 23.333494 -0.608822 -0.685486 -4.054939 0.000000 0.000000 -3.052292 0.000000 0.000000 -0.001347 -8.002656 -0.194655 -57.741531 -4.001737 -0.451969 -26.001497 0.000000 0.000000 -7.000325 0.000000 0.000000 -0.002182 7.999156 -0.194408 57.737434 3.998658 -0.453796 25.997908 0.000000 0.000000 6.996825 0.000000 0.000000 -8.382490 11.188734 10.712170 38.455425 1.102921 -0.596148 -17.597921 6.624269 -15.686709 -8.493541 -10.172324 -10.863573 38.751347 -1.241827 0.565252 -18.021507 -6.811955 14.851131 
